<svg width="20" height="20" viewBox="0 0 20 20" fill="none" xmlns="http://www.w3.org/2000/svg">
<path d="M3.30783 12.0578L9.55783 5.80783C9.61588 5.74972 9.68481 5.70362 9.76068 5.67217C9.83656 5.64072 9.91788 5.62453 10 5.62453C10.0822 5.62453 10.1635 5.64072 10.2394 5.67217C10.3152 5.70362 10.3842 5.74972 10.4422 5.80783L16.6922 12.0578C16.8095 12.1751 16.8754 12.3342 16.8754 12.5C16.8754 12.6659 16.8095 12.8249 16.6922 12.9422C16.5749 13.0595 16.4159 13.1254 16.25 13.1254C16.0842 13.1254 15.9251 13.0595 15.8078 12.9422L10 7.13361L4.19221 12.9422C4.13414 13.0003 4.0652 13.0463 3.98933 13.0778C3.91346 13.1092 3.83214 13.1254 3.75002 13.1254C3.6679 13.1254 3.58658 13.1092 3.51071 13.0778C3.43484 13.0463 3.3659 13.0003 3.30783 12.9422C3.24976 12.8841 3.2037 12.8152 3.17227 12.7393C3.14085 12.6635 3.12467 12.5821 3.12467 12.5C3.12467 12.4179 3.14085 12.3366 3.17227 12.2607C3.2037 12.1848 3.24976 12.1159 3.30783 12.0578Z" fill="#4A5DCD"/>
</svg>
