<svg width="194" height="38" viewBox="0 0 194 38" fill="none" xmlns="http://www.w3.org/2000/svg">
<g clip-path="url(#clip0_3275_618)">
<mask id="mask0_3275_618" style="mask-type:luminance" maskUnits="userSpaceOnUse" x="2" y="2" width="35" height="34">
<path d="M36.5 2H2.5V36H36.5V2Z" fill="white"/>
</mask>
<g mask="url(#mask0_3275_618)">
<path fill-rule="evenodd" clip-rule="evenodd" d="M19.5 7.71963C18.2715 7.71963 17.2757 8.71548 17.2757 9.94393H11.5561C11.5561 5.55662 15.1127 2 19.5 2C23.8874 2 27.4439 5.55662 27.4439 9.94393C27.4439 14.3312 23.8874 17.8878 19.5 17.8878V12.1682C20.7284 12.1682 21.7243 11.1724 21.7243 9.94393C21.7243 8.71548 20.7284 7.71963 19.5 7.71963ZM30.7803 19C30.7803 17.7715 29.7845 16.7757 28.5561 16.7757V11.0561C32.9434 11.0561 36.5 14.6127 36.5 19C36.5 23.3874 32.9434 26.9439 28.5561 26.9439C24.1687 26.9439 20.6121 23.3874 20.6121 19H26.3318C26.3318 20.2284 27.3277 21.2243 28.5561 21.2243C29.7845 21.2243 30.7803 20.2284 30.7803 19ZM10.4439 21.2243C9.21548 21.2243 8.21963 20.2284 8.21963 19C8.21963 17.7715 9.21548 16.7757 10.4439 16.7757C11.6724 16.7757 12.6682 17.7715 12.6682 19H18.3878C18.3878 14.6127 14.8312 11.0561 10.4439 11.0561C6.05662 11.0561 2.5 14.6127 2.5 19C2.5 23.3874 6.05662 26.9439 10.4439 26.9439V21.2243ZM19.5 30.2803C20.7284 30.2803 21.7243 29.2845 21.7243 28.0561H27.4439C27.4439 32.4434 23.8874 36 19.5 36C15.1127 36 11.5561 32.4434 11.5561 28.0561C11.5561 23.6687 15.1127 20.1121 19.5 20.1121V25.8318C18.2715 25.8318 17.2757 26.8277 17.2757 28.0561C17.2757 29.2845 18.2715 30.2803 19.5 30.2803Z" fill="#C58DE7"/>
</g>
</g>
<path d="M57.516 27.98C55.884 27.98 54.508 27.724 53.388 27.212C52.284 26.7 51.444 26.004 50.868 25.124C50.308 24.228 50.028 23.204 50.028 22.052H54.348C54.348 22.468 54.46 22.852 54.684 23.204C54.924 23.54 55.276 23.804 55.74 23.996C56.204 24.188 56.796 24.284 57.516 24.284C58.14 24.284 58.668 24.204 59.1 24.044C59.548 23.884 59.884 23.66 60.108 23.372C60.348 23.084 60.468 22.74 60.468 22.34C60.468 21.828 60.252 21.436 59.82 21.164C59.388 20.876 58.66 20.692 57.636 20.612L56.508 20.516C54.7 20.356 53.26 19.788 52.188 18.812C51.116 17.836 50.58 16.54 50.58 14.924C50.58 13.772 50.844 12.788 51.372 11.972C51.916 11.156 52.676 10.532 53.652 10.1C54.628 9.668 55.78 9.452 57.108 9.452C58.548 9.452 59.764 9.692 60.756 10.172C61.764 10.652 62.532 11.332 63.06 12.212C63.588 13.076 63.852 14.084 63.852 15.236H59.532C59.532 14.852 59.436 14.5 59.244 14.18C59.052 13.86 58.772 13.612 58.404 13.436C58.052 13.244 57.62 13.148 57.108 13.148C56.628 13.148 56.22 13.228 55.884 13.388C55.564 13.532 55.316 13.74 55.14 14.012C54.98 14.284 54.9 14.588 54.9 14.924C54.9 15.372 55.052 15.756 55.356 16.076C55.66 16.396 56.188 16.588 56.94 16.652L58.068 16.748C59.38 16.86 60.54 17.148 61.548 17.612C62.556 18.06 63.348 18.676 63.924 19.46C64.5 20.244 64.788 21.204 64.788 22.34C64.788 23.476 64.492 24.468 63.9 25.316C63.324 26.164 62.492 26.82 61.404 27.284C60.332 27.748 59.036 27.98 57.516 27.98ZM74.7283 27.98C73.1283 27.98 71.7363 27.708 70.5523 27.164C69.3683 26.604 68.3843 25.876 67.6003 24.98C66.8163 24.068 66.2323 23.084 65.8483 22.028C65.4643 20.972 65.2723 19.948 65.2723 18.956V18.428C65.2723 17.324 65.4723 16.244 65.8723 15.188C66.2723 14.116 66.8723 13.148 67.6723 12.284C68.4723 11.42 69.4563 10.732 70.6243 10.22C71.8083 9.708 73.1763 9.452 74.7283 9.452C76.2643 9.452 77.6163 9.708 78.7843 10.22C79.9683 10.732 80.9603 11.42 81.7603 12.284C82.5603 13.148 83.1603 14.116 83.5603 15.188C83.9763 16.244 84.1843 17.324 84.1843 18.428V18.956C84.1843 19.948 83.9843 20.972 83.5843 22.028C83.2003 23.084 82.6163 24.068 81.8323 24.98C81.0483 25.876 80.0643 26.604 78.8803 27.164C77.6963 27.708 76.3123 27.98 74.7283 27.98ZM74.7283 23.804C75.4963 23.804 76.1843 23.676 76.7923 23.42C77.4003 23.164 77.9203 22.804 78.3523 22.34C78.7843 21.876 79.1123 21.34 79.3363 20.732C79.5603 20.108 79.6723 19.436 79.6723 18.716C79.6723 17.948 79.5523 17.252 79.3123 16.628C79.0883 16.004 78.7603 15.468 78.3283 15.02C77.8963 14.572 77.3763 14.228 76.7683 13.988C76.1603 13.748 75.4803 13.628 74.7283 13.628C73.9603 13.628 73.2723 13.748 72.6643 13.988C72.0563 14.228 71.5363 14.572 71.1043 15.02C70.6723 15.468 70.3443 16.004 70.1203 16.628C69.8963 17.252 69.7843 17.948 69.7843 18.716C69.7843 19.436 69.8963 20.108 70.1203 20.732C70.3443 21.34 70.6723 21.876 71.1043 22.34C71.5363 22.804 72.0563 23.164 72.6643 23.42C73.2723 23.676 73.9603 23.804 74.7283 23.804ZM85.9185 27.5V9.836H90.3825V27.5H85.9185ZM96.4785 27.5L91.5585 20.06H96.4065L101.615 27.5H96.4785ZM89.2545 22.124V18.692H93.4545C93.9825 18.692 94.4385 18.588 94.8225 18.38C95.2065 18.172 95.5025 17.876 95.7105 17.492C95.9345 17.108 96.0465 16.66 96.0465 16.148C96.0465 15.62 95.9345 15.164 95.7105 14.78C95.5025 14.396 95.2065 14.1 94.8225 13.892C94.4385 13.684 93.9825 13.58 93.4545 13.58H89.2545V9.836H93.1905C94.7105 9.836 96.0225 10.068 97.1265 10.532C98.2305 10.98 99.0785 11.652 99.6705 12.548C100.263 13.428 100.559 14.524 100.559 15.836V16.22C100.559 17.532 100.255 18.628 99.6465 19.508C99.0545 20.372 98.2065 21.028 97.1025 21.476C96.0145 21.908 94.7105 22.124 93.1905 22.124H89.2545ZM105.712 27.5V13.388H110.176V27.5H105.712ZM100.912 13.868V9.98H114.976V13.868H100.912ZM122.114 27.98C120.482 27.98 119.106 27.724 117.986 27.212C116.882 26.7 116.042 26.004 115.466 25.124C114.906 24.228 114.626 23.204 114.626 22.052H118.946C118.946 22.468 119.058 22.852 119.282 23.204C119.522 23.54 119.874 23.804 120.338 23.996C120.802 24.188 121.394 24.284 122.114 24.284C122.738 24.284 123.266 24.204 123.698 24.044C124.146 23.884 124.482 23.66 124.706 23.372C124.946 23.084 125.066 22.74 125.066 22.34C125.066 21.828 124.85 21.436 124.418 21.164C123.986 20.876 123.258 20.692 122.234 20.612L121.106 20.516C119.298 20.356 117.858 19.788 116.786 18.812C115.714 17.836 115.178 16.54 115.178 14.924C115.178 13.772 115.442 12.788 115.97 11.972C116.514 11.156 117.274 10.532 118.25 10.1C119.226 9.668 120.378 9.452 121.706 9.452C123.146 9.452 124.362 9.692 125.354 10.172C126.362 10.652 127.13 11.332 127.658 12.212C128.186 13.076 128.45 14.084 128.45 15.236H124.13C124.13 14.852 124.034 14.5 123.842 14.18C123.65 13.86 123.37 13.612 123.002 13.436C122.65 13.244 122.218 13.148 121.706 13.148C121.226 13.148 120.818 13.228 120.482 13.388C120.162 13.532 119.914 13.74 119.738 14.012C119.578 14.284 119.498 14.588 119.498 14.924C119.498 15.372 119.65 15.756 119.954 16.076C120.258 16.396 120.786 16.588 121.538 16.652L122.666 16.748C123.978 16.86 125.138 17.148 126.146 17.612C127.154 18.06 127.946 18.676 128.522 19.46C129.098 20.244 129.386 21.204 129.386 22.34C129.386 23.476 129.09 24.468 128.498 25.316C127.922 26.164 127.09 26.82 126.002 27.284C124.93 27.748 123.634 27.98 122.114 27.98ZM141.87 27.5V9.98H146.334V27.5H141.87ZM130.734 27.5V9.98H135.198V27.5H130.734ZM134.43 20.612V16.724H142.638V20.612H134.43ZM157.514 27.98C155.914 27.98 154.522 27.708 153.338 27.164C152.154 26.604 151.17 25.876 150.386 24.98C149.602 24.068 149.018 23.084 148.634 22.028C148.25 20.972 148.058 19.948 148.058 18.956V18.428C148.058 17.324 148.258 16.244 148.658 15.188C149.058 14.116 149.658 13.148 150.458 12.284C151.258 11.42 152.242 10.732 153.41 10.22C154.594 9.708 155.962 9.452 157.514 9.452C159.05 9.452 160.402 9.708 161.57 10.22C162.754 10.732 163.746 11.42 164.546 12.284C165.346 13.148 165.946 14.116 166.346 15.188C166.762 16.244 166.97 17.324 166.97 18.428V18.956C166.97 19.948 166.77 20.972 166.37 22.028C165.986 23.084 165.402 24.068 164.618 24.98C163.834 25.876 162.85 26.604 161.666 27.164C160.482 27.708 159.098 27.98 157.514 27.98ZM157.514 23.804C158.282 23.804 158.97 23.676 159.578 23.42C160.186 23.164 160.706 22.804 161.138 22.34C161.57 21.876 161.898 21.34 162.122 20.732C162.346 20.108 162.458 19.436 162.458 18.716C162.458 17.948 162.338 17.252 162.098 16.628C161.874 16.004 161.546 15.468 161.114 15.02C160.682 14.572 160.162 14.228 159.554 13.988C158.946 13.748 158.266 13.628 157.514 13.628C156.746 13.628 156.058 13.748 155.45 13.988C154.842 14.228 154.322 14.572 153.89 15.02C153.458 15.468 153.13 16.004 152.906 16.628C152.682 17.252 152.57 17.948 152.57 18.716C152.57 19.436 152.682 20.108 152.906 20.732C153.13 21.34 153.458 21.876 153.89 22.34C154.322 22.804 154.842 23.164 155.45 23.42C156.058 23.676 156.746 23.804 157.514 23.804ZM171.208 27.5L167.032 9.98H171.64L174.784 24.5L174.04 23.948H175.984L175.144 24.5L177.52 10.604H181.144L177.856 27.5H171.208ZM181.624 27.5L178.096 10.604H181.912L184.696 24.5L183.856 23.948H185.68L185.056 24.5L187.768 9.98H192.088L188.416 27.5H181.624Z" fill="white"/>
<defs>
<clipPath id="clip0_3275_618">
<rect width="34" height="34" fill="white" transform="translate(2.5 2)"/>
</clipPath>
</defs>
</svg>
